# xmcd
#
# Track frame offsets:
#	150
#	11770
#	24132
#	35420
#	45237
#	55685
#	67067
#	79779
#	91402
#	102795
#
# Disc length: 1523
#
# Revision: 2
# Processed by: cddbd v1.5.1PL0 Copyright (c) Steve Scherf et al.
# Submitted via: EasyCDDAExtractor 6.0.0.1
# Normalized: r1:DSETVAR1
#
DISCID=6d05f10a
DTITLE=Various Artist - Patsy Cline - Kitty Wells - Back To Back
DYEAR=1995
DGENRE=Country
TTITLE0=Patsy Cline - Walkin' After Midnight
TTITLE1=Patsy Cline - A Poor Man's Roses (Or A Rich Man's Gold)
TTITLE2=Patsy Cline - Just Out Of Reach (Of My Two Open Arms)
TTITLE3=Patsy Cline - I'm Blue Again
TTITLE4=Patsy Cline - Lovesick Blues
TTITLE5=Kitty Wells - It Wasn't God Who Made Honky Tonk Angels
TTITLE6=Kitty Wells - Makin' Believe
TTITLE7=Kitty Wells - Don't You Hear
TTITLE8=Kitty Wells - Heartbreak U.S.A.
TTITLE9=Kitty Wells - Password
EXTD=
EXTT0=
EXTT1=
EXTT2=
EXTT3=
EXTT4=
EXTT5=
EXTT6=
EXTT7=
EXTT8=
EXTT9=
PLAYORDER=
